# xmcd CD database file
#
# Track frame offsets:
#	182
#	21997
#	64222
#	89945
#	122835
#	144157
#	164040
#	197117
#	218800
#	242050
#
# Disc length: 3541 seconds
#
# Revision: 0
# Processed by: cddbd v1.5.2PL0 Copyright (c) Steve Scherf et al.
# Submitted via: CDex 1.70beta2
#
DISCID=9b0dd30a
DTITLE=Anaid - Four Years
DYEAR=1990
DGENRE=Jazz
TTITLE0=Azalia
TTITLE1=Belladona
TTITLE2=Arabesque
TTITLE3=Vetue de noir
TTITLE4=Ikebana
TTITLE5=Heart break
TTITLE6=Spa
TTITLE7=Nord-Sud
TTITLE8=Clementine
TTITLE9=Sea and saw
EXTD=YEAR: 1990
EXTT0=
EXTT1=
EXTT2=
EXTT3=
EXTT4=
EXTT5=
EXTT6=
EXTT7=
EXTT8=
EXTT9=
PLAYORDER=
